<?xml version="1.0" encoding="utf-8"?>
<!-- Generator: Adobe Illustrator 16.0.0, SVG Export Plug-In . SVG Version: 6.00 Build 0)  -->
<!DOCTYPE svg PUBLIC "-//W3C//DTD SVG 1.1//EN" "http://www.w3.org/Graphics/SVG/1.1/DTD/svg11.dtd">
<svg version="1.1" id="Layer_1" xmlns="http://www.w3.org/2000/svg" xmlns:xlink="http://www.w3.org/1999/xlink" x="0px" y="0px"
	 width="864px" height="864px" viewBox="0 0 864 864" enable-background="new 0 0 864 864" xml:space="preserve">
<path fill-rule="evenodd" clip-rule="evenodd" d="M62,426c7.178-1.436,3-3,13-4c6,1,7.186-1.391,11,6
	c12.494-22.912,26.65-34.502,26.576-57.693c-0.023-7.523,1.115-15.338,3.307-22.537c17.77-58.354,13.732-118.074,12.143-177.732
	c-0.574-21.572,3.529-23.992,22.244-12.518c19.42,11.906,37.295,26.318,56.604,38.428c5.99,3.758,15.32,6.596,21.648,4.762
	c116.551-33.746,233.83-34.088,351.625-8.402c27.543,6.006,54.324,15.461,81.84,21.625c7.689,1.721,17.682-0.807,25.006-4.547
	c27.002-13.785,53.266-29.021,79.984-43.385c4.584-2.465,10.037-3.322,19.633-6.361c-2.287,15.08-3.02,26.346-5.795,37.086
	c-11.209,43.422-14.709,86.541-9.645,131.848c4.422,39.543-1.16,80.211-2.391,120.379c-0.35,11.338-1.613,21.596,16.398,15.242
	c5.754-2.029,27.822-1.193,26.848,9.494C811,482,794.174,487.52,790.357,486.025c-24.281-9.508-26.041,14.605-29.014,23.535
	c-13.125,39.426-33.711,73.902-61.07,106.52c7.449,3.934,13.576,7.17,20.738,10.951c8.988,12.969-26.404-11.861-35.604,6.98
	c30.4,12.504,60.205,24.762,90.018,37.023C780,674,778,677,772.982,677.131c-3.789-1.133-7.68-2.01-11.355-3.439
	C737.32,664.264,712.84,655.23,688.871,645c-12.418-5.301-19.25-0.691-25.596,10.158c34.545,16.412,68.605,32.6,102.67,48.785
	C769,707,767,711,762.791,710.498c-4.479-1.969-8.973-3.891-13.424-5.904c-28.207-12.768-56.289-25.812-84.711-38.082
	c-4.895-2.113-12.545-3.285-16.658-0.93c-34.85,19.932-73.176,23.848-111.896,24.633c-101.971,2.072-203.133-4.979-302.73-28.812
	c-5.609-1.346-13.873,2.035-18.924,5.84c-20.256,15.268-39.732,31.566-60.99,45.951C138,710,193.623,674.637,215.131,655.705
	c-9.955-8.615-18.562-13.123-30.137-5.596c-8.285,5.387-17.496,9.355-26.293,13.953C154,666,154,661,155.734,659.156
	c9.824-6.289,19.646-12.582,29.508-18.893c-13.578-18.072-16.146-18.797-34.428-9.438c-12.74,6.518-25.393,13.213-38.086,19.826
	C109,652,106,648,109.447,645.039c16.426-9.518,32.852-19.039,47.24-27.377c-26.486-57.777-62.238-110.408-66.672-177.631
	C83.484,444.498,79,442,73,444c-8-2-16-3-16-10L62,426z"/>
<g>
	<path fill-rule="evenodd" clip-rule="evenodd" fill="#FFFFFF" d="M774.512,177.662c-4.822,24.932-10.297,49.766-14.195,74.842
		c-1.961,12.619-2.744,25.895-1.152,38.508c6.072,48.121,6.504,96.082,0.887,144.59c-2.332-0.68-3.844-0.719-4.023-1.229
		c-18.264-51.998-62.836-66.164-110.016-73.844c-34.82-5.666-69.242,0.684-102.236,13.941
		c-16.271,6.539-30.088,15.838-37.441,31.951c-4.795,10.516-10.547,9.936-19.166,5.686c-26.768-13.205-54.791-17.695-83.885-9.348
		c-9.801,2.814-19.037,7.604-29.064,11.707c-0.746-0.549-2.656-1.209-3.189-2.461c-23.59-55.35-71.852-70.881-125.316-75.582
		c-44.043-3.873-84.652,8.49-123.445,34.277c17.662-67.992,21.547-136.457,13.006-205.84C136,160,136,159,141.734,162.16
		c16.701,11.572,34.592,21.783,49.77,35.088c15.428,13.527,29.152,16.312,49.701,10.562
		c138.24-38.691,275.492-29.695,411.211,13.543c17.043,5.43,29.938,4.178,45.184-6.795c22.529-16.211,47.912-28.461,72.078-42.4
		C779,169,776,174,774.512,177.662z M737.674,260.297c8.703-24.494,16.619-46.762,24.531-69.025C764,187,764,183,757.275,187.406
		c-20.467,15.205-40.936,30.414-63.873,47.457C709.5,244.111,722.346,251.492,737.674,260.297z M155.068,176.627
		C150,176,149,173,148.982,179.535c2.008,22.879,3.805,45.781,6.518,68.574c1.012,8.446,9.943,3.683,11.135,2.738
		c10.809-8.574,20.703-18.303,31.629-28.293C182.633,205.934,168.85,191.281,155.068,176.627z"/>
	<path fill-rule="evenodd" clip-rule="evenodd" fill="#FFFFFF" d="M595.986,605.152c27.361,4.854,54.717,9.703,82.08,14.559
		c0.136,5.361-1.008,8.611-1.066,6.289c-5,4-11.34,3.324-17.211,2.279c-33.141-5.912-66.119-12.73-99.227-18.844
		c-6.736-1.242-30.562-6.436-21.34,2.633c40.91,7.703,81.82,15.412,124.199,23.396c-7.078,14.102-14.082,16.863-25.674,12.828
		c-26.664-9.275-53.75-17.34-80.729-25.697c-3.705-1.148-11.123-1.062-15.02-1.596c-0.391,1.418,0,3,2.188,4.166
		c31.266,10.281,62.533,20.557,93.803,30.84c0.055,1.822,0.113,3.646,0.172,5.467c-13.057,4.146-25.865,9.52-39.215,12.232
		c-65.271,13.258-131.094,9.42-196.635,3.346c-47.578-4.414-94.859-12.053-142.234-18.545c-6.344-0.867-15.176-1.662-23.078-7.506
		c29.822-16.045,62.369-33.871,92.193-49.916C331,600,330,597,327.486,597.488c-5.787,2.01-11.926,3.346-17.301,6.145
		c-23.615,12.295-47.143,24.781-70.439,37.67c-14.201,7.852-14.314,8.213-33.312-5.326c44.109-17.812,85.469-34.516,128.525-51.908
		c0-1.578,5.041-6.068,0-12.064c-7.244,0.43-13.934-0.221-20.045,1.359c-43.6,11.27-87.25,22.416-130.482,34.988
		c-10.682,3.107-17.209,2.27-23.566-6.525c-11.715-16.207-23.789-32.123-24.924-54.246c21.75,6.949,41.898,14.934,62.779,19.754
		c46.541,10.742,91.844,8.449,133.318-18.68c16.865-11.031,28.996-25.24,33.852-45.701c3.24-13.656,9.711-26.512,13.881-39.99
		c1.277-4.131,1.219-9.971-0.803-13.584c-6.562-11.742-0.713-18.412,8.281-24.193c26.717-17.168,73.494-15.232,98.662,3.936
		c8.996,6.85,13.58,18.037,6.576,25.4c-9.877,10.385-3.271,19.207-1.678,28.086c1.951,10.869,7.1,21.152,10.576,31.779
		c7.875,24.072,23.523,41.949,45.953,52.549c45.293,21.412,92.41,29.252,140.275,9.393c16.111-6.684,30.227-18.172,47.67-28.957
		c-12.312,24.834-26.76,45.977-45.404,63.99c-2.758,2.664-10.236,1.314-15.334,0.525c-23.082-3.562-46.086-7.662-69.15-11.361
		c-2.869-0.459-5.934,0.332-8.906,0.543C593,602,594,604,595.986,605.152z M485,656.795c1-1.795,0-4.795-5-4.795
		c-29.643-11.133-46.268-31.775-44.838-63.455c0.66-14.627,1.033-29.379-0.094-43.947c-1.35-17.504,2.906-32.732,11.59-47.904
		c5.551-9.699,10.771-17.865,14.341-28.693c-14-2-28.786-4.768-41.136-2.781c-14.789,2.379-17.133,8.281-6.734,19.623
		c14.855,16.201,18.699,34.326,17.061,55.186c-0.977,12.41-1.434,25.109,0.043,37.416c4.232,35.275-8.326,59.07-43.732,68.809
		c-0.537,0.148-0.688,1.717-1.02,2.623c0.873,1.377,1.748,2.75,2.621,4.127c15.225-9.639,30.449-19.277,46.525-29.455
		C445.199,641.348,460.404,656.064,485,656.795z"/>
	<path fill-rule="evenodd" clip-rule="evenodd" fill="#FFFFFF" d="M326.441,369.562c43.082,19.625,54.205,73.338,33.027,137.486
		c-14.688,44.492-90.793,69.979-129.252,57.863c49.846-3.104,99.521-8.773,121.75-62.061
		C372.27,454.182,367.252,408.158,326.441,369.562z"/>
	<path fill-rule="evenodd" clip-rule="evenodd" fill="#FFFFFF" d="M517.918,535.982c40.484,31.764,86.9,39.416,134.768,38.729
		c38.188-0.547,64.152-23.318,82.379-55.518c3.65-6.445,6.826-13.162,10.217-19.748c1.484,0.498,2.969,0.996,4.455,1.494
		c-3.379,8.797-5.535,18.344-10.354,26.266c-19.748,32.482-50.816,48.754-86.953,53.996c-40.557,5.881-78.863-3.734-113.549-25.619
		C530.934,550.564,524.857,542.594,517.918,535.982z"/>
	<path fill-rule="evenodd" clip-rule="evenodd" fill="#FFFFFF" d="M108.588,501.734c-19.613-37.193-15.047-107.049,32.553-132.133
		C105.092,411.066,103.064,419.299,108.588,501.734z"/>
	<path fill-rule="evenodd" clip-rule="evenodd" fill="#FFFFFF" d="M664.93,391.23c-31.818-10.115-63.422-8.621-96.934,2.48
		C583.043,371.312,644.072,370.219,664.93,391.23z"/>
	<path fill-rule="evenodd" clip-rule="evenodd" fill="#FFFFFF" d="M184.648,371.086c16.771-24.828,81.662-24.166,98.285,2.445
		C248.777,359.281,216.814,355.139,184.648,371.086z"/>
	<path fill-rule="evenodd" clip-rule="evenodd" fill="#FFFFFF" d="M730.18,403.631c-39.533-23.65-81.643-38.682-128.518-37.789
		C650.336,358.92,692.994,372.125,730.18,403.631z"/>
	<path fill-rule="evenodd" clip-rule="evenodd" fill="#FFFFFF" d="M686.598,441.914c14.401,3.086,9.756,10.393,13.791,14.689
		c-2.9,2.516-7.049,7.729-8.48,7.064c-5.418-2.498-14.909-0.668-14.814-10.604C679.568,450.162,676.999,442,686.598,441.914z"/>
	<path fill-rule="evenodd" clip-rule="evenodd" fill="#FFFFFF" d="M177,616c45.516-12.133,94.564-25.643,140.082-37.775
		c0.152,0.924,0.303,1.852,0.457,2.775c-37.131,16.547-74.301,33.008-111.369,49.691C193.248,636.506,186,628,177,616z"/>
</g>
</svg>
